<?xml version="1.0" encoding="utf-8"?>
<!-- Generator: Adobe Illustrator 19.2.1, SVG Export Plug-In . SVG Version: 6.00 Build 0)  -->
<svg version="1.1" id="Capa_1" xmlns="http://www.w3.org/2000/svg" xmlns:xlink="http://www.w3.org/1999/xlink" x="0px" y="0px"
	 viewBox="0 0 482.1 482.1" style="enable-background:new 0 0 482.1 482.1;" xml:space="preserve">
<style type="text/css">
	.st0{fill:#FFFFFF;}
</style>
<g>
	<path class="st0" d="M455.5,198.2L326.8,326.8c-35.5,35.5-93.1,35.5-128.6,0l-42.9-42.9l42.9-42.9l42.9,42.9
		c11.8,11.8,31.1,11.8,42.9,0l128.6-128.6c11.8-11.8,11.8-31.1,0-42.9l-42.9-42.9c-11.8-11.8-31.1-11.8-42.9,0l-45.9,45.9
		c-21.3-12.5-45.5-17.9-69.4-16.3L284,26.6c35.5-35.5,93.1-35.5,128.6,0l42.9,42.9C491,105,491,162.7,455.5,198.2z M201.2,366.7
		l-45.9,45.9c-11.8,11.8-31.1,11.8-42.9,0l-42.9-42.9c-11.8-11.8-11.8-31,0-42.9l128.6-128.6c11.8-11.8,31.1-11.8,42.9,0l42.9,42.9
		l42.9-42.9L284,155.3c-35.5-35.5-93.1-35.5-128.6,0L26.7,283.9c-35.5,35.5-35.5,93.1,0,128.7l42.9,42.9
		c35.5,35.5,93.1,35.5,128.6,0l72.5-72.5C246.7,384.6,222.6,379.2,201.2,366.7z"/>
</g>
</svg>
