<svg id="Layer_1" data-name="Layer 1" xmlns="http://www.w3.org/2000/svg" viewBox="0 0 143.59 36.4"><defs><style>.cls-1{fill:#fff;}</style></defs><title>logo</title><path class="cls-1" d="M0.14,13.88q0.14-.7.19-1.15a1.41,1.41,0,0,0-.33-1l0.3-1.17a3.14,3.14,0,0,0,0-1.17A5.2,5.2,0,0,1,1.59,7.33,9.33,9.33,0,0,1,3.49,5.9a13.42,13.42,0,0,1,2.16-1q1.13-.4,2.11-0.68A0.17,0.17,0,0,0,7.6,4.09C7.48,4.09,7.44,4,7.51,3.86A34.51,34.51,0,0,0,12.6,2.5q2.55-.89,5.23-1.59A27.91,27.91,0,0,1,23.31,0a17.61,17.61,0,0,1,5.91.73,4.85,4.85,0,0,0,.52,1.08q0.33,0.52.68,1a8.68,8.68,0,0,1,.63,1,2.3,2.3,0,0,1,.33,1,5,5,0,0,1,.91,1.1,2.07,2.07,0,0,1,.12,1.57q-0.52.38-1.08,0.75T30.16,9a13.8,13.8,0,0,0-4.22-.37q-2.11.14-3.8,0.33a1.53,1.53,0,0,0-1.22-.54,6.46,6.46,0,0,0-1.48.23L17.92,9a3.39,3.39,0,0,1-1.41.12,2.76,2.76,0,0,1-1.36.63q-0.84.16-1.78,0.26a0.29,0.29,0,0,0,.09.33,0.3,0.3,0,0,1,0,.38,1.69,1.69,0,0,0,.89.59l1.15,0.3a4.24,4.24,0,0,1,1.05.4,1.23,1.23,0,0,1,.61.82,2.9,2.9,0,0,1,1.45.45,4,4,0,0,1,1,1,3.77,3.77,0,0,1,.61,1.2,3.1,3.1,0,0,1,.14,1.15q0.19,0.47.4,0.38a0.45,0.45,0,0,1,.49.23,3.78,3.78,0,0,0,.87,1.48,6.13,6.13,0,0,1,1.05,1.66l0.16,2.53a4.72,4.72,0,0,1-.4,2.2,11.69,11.69,0,0,1-2.3,3.7,17.73,17.73,0,0,1-3.4,2.88,26.68,26.68,0,0,1-4,2.16,36.44,36.44,0,0,1-4.17,1.52,1.06,1.06,0,0,0-.45,0q-0.26,0-.12-0.28a1.92,1.92,0,0,1-1,.47,5.63,5.63,0,0,1-1.17.07L5,35.6a5.45,5.45,0,0,0-1.24,0,9.82,9.82,0,0,1-.68-0.75A3,3,0,0,1,2.64,34a0.25,0.25,0,0,1-.21-0.28v0a0.2,0.2,0,0,0-.13-0.25H2.22a0.66,0.66,0,0,1,0-.28l0.09-.19a0.28,0.28,0,0,0,.16-0.21,0.3,0.3,0,0,0-.14-0.14L2.1,32.42A0.2,0.2,0,0,1,2,32.19a1.63,1.63,0,0,0,.16-1Q2.12,30.6,2.07,30a3.47,3.47,0,0,1,.09-1.15A1.53,1.53,0,0,1,3,27.93a11.6,11.6,0,0,0,3.63-.19,17.73,17.73,0,0,0,3.23-1,31.44,31.44,0,0,0,2.91-1.43q1.38-.77,2.7-1.43a2,2,0,0,1,.45-0.8q0.3-.33.63-0.63a6.11,6.11,0,0,0,.61-0.66,2.36,2.36,0,0,0,.42-0.87,0.43,0.43,0,0,0,0-.28,0.47,0.47,0,0,0-.14-0.16l-0.19-.16A0.38,0.38,0,0,1,17.12,20l-0.26-.09a0.59,0.59,0,0,0-.21,0,17.13,17.13,0,0,0-2.58-1,12.42,12.42,0,0,1-2.3-.94,1.24,1.24,0,0,1-1.12.19,13.59,13.59,0,0,0-1.36-.37,33.78,33.78,0,0,1-3.73-.37,14.35,14.35,0,0,1-3.4-1A2.07,2.07,0,0,0,1.93,16a0.62,0.62,0,0,0-.66-0.12A9.9,9.9,0,0,0,.59,15,4.94,4.94,0,0,1,.14,13.88Z" transform="translate(0 -0.02)"/><path class="cls-1" d="M25.7,33.76a0.1,0.1,0,0,1-.14,0v0a0.45,0.45,0,0,1,0-.22,0.29,0.29,0,0,1,.11-0.19,0.21,0.21,0,0,1,.24,0,3,3,0,0,1-.61-1.08,6.08,6.08,0,0,0-.5-1.19,0.58,0.58,0,0,0,.15-0.32A3.67,3.67,0,0,1,25,30.3,0.66,0.66,0,0,1,25.18,30q0.09-.09.24,0.06a1.49,1.49,0,0,1,0-.67,4.35,4.35,0,0,1,.17-0.48,2,2,0,0,0,.13-0.45A0.87,0.87,0,0,0,25.61,28a5.23,5.23,0,0,0,.93-2.1,13.59,13.59,0,0,0,.26-2.06,2.85,2.85,0,0,0,.58-0.89,5.38,5.38,0,0,0,.35-1.15,6.33,6.33,0,0,0,.11-1.17,2.29,2.29,0,0,0-.15-0.91,0.2,0.2,0,0,1,.17-0.17,1,1,0,0,1,.32,0,27.43,27.43,0,0,0,.35-3.3,31.33,31.33,0,0,1,.37-3.51,10.58,10.58,0,0,1,.91-3,3,3,0,0,1,2-1.65,6.52,6.52,0,0,0,.69,1.63A16,16,0,0,0,33.43,11l1,1.34a11,11,0,0,1,1,1.48,13.92,13.92,0,0,1-.17,2l-0.33,2.26q-0.2,1.15-.41,2.23t-0.39,1.82a0.31,0.31,0,0,0,.26.24q0.22,0.06.07,0.43,1.08-.26,2.25-0.5l2.3-.48q1.13-.24,2.23-0.58a13.23,13.23,0,0,0,2.06-.82q0.22-1.78.56-3.53a10.54,10.54,0,0,0,.07-3.53A1.62,1.62,0,0,0,44.3,13a0.68,0.68,0,0,1,.45-0.33,6.45,6.45,0,0,1,.13-3.56,4,4,0,0,1,.83-1.43,2.59,2.59,0,0,1,1.37-.8,10.12,10.12,0,0,1,.85,1.52l0.77,1.73a16.93,16.93,0,0,0,.8,1.58,4.28,4.28,0,0,0,1.09,1.26q0.11,1.3.19,2.65t0.11,2.8q-0.33,1.67-.76,3.25A21.27,21.27,0,0,0,49.52,25a2.69,2.69,0,0,0-.48.8q-0.19.46-.35,0.93a8.35,8.35,0,0,1-.39.91,2.43,2.43,0,0,1-.56.74,2.08,2.08,0,0,1,.06,1A1.68,1.68,0,0,0,48,30.46a3.93,3.93,0,0,1-.28,1.91,3.88,3.88,0,0,1-1,1.3,4.77,4.77,0,0,1-1.41.85q-0.8.32-1.58,0.58a7.25,7.25,0,0,1-.69-0.46,2.06,2.06,0,0,0-.76-0.35L42.51,34a9.5,9.5,0,0,1-1.28-1.58,3.23,3.23,0,0,1-.5-1.91A2.52,2.52,0,0,1,40.8,30c0.07-.31.1-0.64,0.17-1s0.12-.67.19-1a4.8,4.8,0,0,0,.09-0.5A10.29,10.29,0,0,0,39.1,28q-1.11.37-2.17,0.83a20,20,0,0,0-2,1l-1.47.83a3.07,3.07,0,0,1-.19.63q-0.19.52-.45,1.09a6.14,6.14,0,0,1-.58,1,0.74,0.74,0,0,1-.65.41,1.1,1.1,0,0,0,.15.28,0.42,0.42,0,0,1,0,.35,5,5,0,0,0-1.13.48,7.12,7.12,0,0,1-1,.5,2.84,2.84,0,0,1-1.13.19A3.54,3.54,0,0,1,27,35.08a0.62,0.62,0,0,0-.22-0.46,3.1,3.1,0,0,0-.46-0.35L25.9,34A0.3,0.3,0,0,1,25.7,33.76Z" transform="translate(0 -0.02)"/><path class="cls-1" d="M58.7,35.17a7.12,7.12,0,0,1-5.36-1.3A8.08,8.08,0,0,1,51.52,32a10.85,10.85,0,0,1-1.24-2.3,12.15,12.15,0,0,1,.19-4.58A14.92,14.92,0,0,1,52,21.33a22.38,22.38,0,0,1,2.28-3.27l2.43-3a0.43,0.43,0,0,0,.43,0,1.13,1.13,0,0,0,.3-0.3,3.93,3.93,0,0,1,.3-0.37,0.91,0.91,0,0,1,.39-0.26,1.66,1.66,0,0,1,.39-0.56A6,6,0,0,1,59,13.17a6,6,0,0,0,.52-0.43A2.22,2.22,0,0,0,60,12.18a1.78,1.78,0,0,0,.65-0.26,4.2,4.2,0,0,0,.52-0.41,5.17,5.17,0,0,1,.5-0.41,2.13,2.13,0,0,1,.63-0.3V10.32a3.31,3.31,0,0,0,1.19-.82q0.37-.45.89-1.15H65a6,6,0,0,0,.76-0.07,4,4,0,0,1,.63-0.93,5.73,5.73,0,0,1,.85-0.67A3.06,3.06,0,0,0,68.44,7a1.84,1.84,0,0,1,1.15.58,1.12,1.12,0,0,0,.26.69,4,4,0,0,0,.48.45l0.52,0.43a1,1,0,0,1,.33.63,0.29,0.29,0,0,0,.24-0.07,0.24,0.24,0,0,1,.24,0,3.75,3.75,0,0,0,.15.48,2,2,0,0,0,.17.33l0.19,0.33a2.68,2.68,0,0,1,.17.45,9.25,9.25,0,0,0-.33.95,1,1,0,0,1-.59.69,0.26,0.26,0,0,0,.19.31h0a0.28,0.28,0,0,1,.26.28,0.82,0.82,0,0,1-.11.56,35.27,35.27,0,0,1,1.89,3.66,31,31,0,0,0,1.93,3.66,2.56,2.56,0,0,0,.06,1,7,7,0,0,0,.33,1q0.2,0.48.39,1a4.7,4.7,0,0,1,.26,1,6.21,6.21,0,0,1,0,1.35,6.5,6.5,0,0,1-.3,1.39,5.49,5.49,0,0,1-.59,1.24,2.74,2.74,0,0,1-.85.87,4.58,4.58,0,0,1-1.48,1.21A8.77,8.77,0,0,0,71.8,32.6a3.91,3.91,0,0,1-1.11.43l-1.22.28a8.26,8.26,0,0,1-1.15.58q-0.67.28-1.37,0.5a11.74,11.74,0,0,1-1.41.35,4,4,0,0,1-1.26.06,13.41,13.41,0,0,1-2.6.67A8.41,8.41,0,0,1,58.7,35.17Zm0.48-13.51a8,8,0,0,1-.87,1.54l-1,1.39a9.33,9.33,0,0,0-.83,1.5A5,5,0,0,0,56.09,28a3.3,3.3,0,0,0,1.76.76,9.83,9.83,0,0,0,2.1,0q1.08-.09,2.15-0.28A11.49,11.49,0,0,1,64,28.25a0.28,0.28,0,0,1,.22-0.33h0.08A7.5,7.5,0,0,0,67.22,27L70,25.58a2.75,2.75,0,0,1,.48-0.78,1.55,1.55,0,0,0,.33-1,2.41,2.41,0,0,1-.24-0.56,3,3,0,0,1-.06-0.67,16.31,16.31,0,0,1-1.67-2.91,21.15,21.15,0,0,0-1.63-3,1,1,0,0,1-.3.37,0.33,0.33,0,0,1-.46,0l0,0a0.82,0.82,0,0,1-.33.5,1,1,0,0,1-.5.13A1.49,1.49,0,0,1,65,17.48a1.84,1.84,0,0,1-.5-0.3l-2.58,2a12.94,12.94,0,0,0-2.32,2.26,0.26,0.26,0,0,1-.22.07,0.37,0.37,0,0,0-.26.15h0Z" transform="translate(0 -0.02)"/><path class="cls-1" d="M77.19,31.83a0.34,0.34,0,0,1-.33-0.28,6,6,0,0,0-.33-0.61h0.41a3,3,0,0,1-.13-1.5q0.13-.69.32-1.34t0.32-1.26a2.22,2.22,0,0,0-.13-1.28,0.17,0.17,0,0,0,.28-0.09A2.2,2.2,0,0,0,77.75,25a3,3,0,0,0,0-.67,5.51,5.51,0,0,0-.06-0.58,14.38,14.38,0,0,0,.76-2.37q0.28-1.22.5-2.43t0.5-2.34a12.73,12.73,0,0,1,.72-2.13,2.29,2.29,0,0,1,1.09.13,1.43,1.43,0,0,1,.76.5,10,10,0,0,0,2-2.15q0.89-1.26,1.8-2.47a12,12,0,0,1,2.06-2.13A5.37,5.37,0,0,1,90.74,7.2q0.89,0.63,2,1.35a6.16,6.16,0,0,1,1.82,1.8l0.58,0.39,0.58,0.39v0.56a4.41,4.41,0,0,1,.87,1.13,11.65,11.65,0,0,1,.63,1.37q0.28,0.72.54,1.47A9.91,9.91,0,0,0,98.35,17a0.92,0.92,0,0,0-.06.39,1.61,1.61,0,0,0,.07.33,2.74,2.74,0,0,1,.09.37,2.89,2.89,0,0,1,0,.5,5,5,0,0,1-1.28,3.17,9,9,0,0,1-2.75,2A24,24,0,0,1,91,25.09a30.86,30.86,0,0,0-3.3,1.17,0.14,0.14,0,0,0,.13.15h0q0.17,0,.09.22,1.11,0.67,1.73,1.08a12.1,12.1,0,0,0,1.15.69,6.39,6.39,0,0,0,1.19.46q0.65,0.19,1.8.45l1.8,0.43q0.65,0.17,1.17.26l1.11,0.17,1.6,0.19a3.37,3.37,0,0,1,.67,1,4.92,4.92,0,0,1,.37,1.11,3.44,3.44,0,0,1,.06,1.06,1.42,1.42,0,0,1-.32.8,0.16,0.16,0,0,0,.18.13h0a1.16,1.16,0,0,1,.35,0,1.91,1.91,0,0,0-.45.45l-0.37.52a3.18,3.18,0,0,1-.43.48,1,1,0,0,1-.61.26,5.84,5.84,0,0,1-3.41,0,43.3,43.3,0,0,1-5.31-1.71q-1.6-.59-2.6-1.08a18.09,18.09,0,0,1-1.74-.95,11.44,11.44,0,0,1-1.37-1q-0.63-.54-1.45-1.28a0.18,0.18,0,0,0-.13.15,0.18,0.18,0,0,1-.13.15,9.34,9.34,0,0,1-.58,2.41,8.59,8.59,0,0,1-1.13,1.89,0.86,0.86,0,0,0-.8.11,2.42,2.42,0,0,1-.5.41,0.9,0.9,0,0,1-.56,0,2.16,2.16,0,0,1-.33-0.2l-0.33-.22A1,1,0,0,0,78,34.78l-0.22-.65a0.5,0.5,0,0,0-.59-0.28,1.25,1.25,0,0,0,.07-0.58,2.38,2.38,0,0,0-.11-0.45A4.19,4.19,0,0,1,77,32.39,0.88,0.88,0,0,1,77.19,31.83Zm12.39-17a8.32,8.32,0,0,1-1.08,1.28q-0.59.58-1.17,1.19a8.28,8.28,0,0,0-1,1.34,5,5,0,0,0-.63,1.73A12.83,12.83,0,0,0,89,19.5l3.23-1.32a3.91,3.91,0,0,0-1-2.21,4.12,4.12,0,0,0-1.62-1.1v0Z" transform="translate(0 -0.02)"/><path class="cls-1" d="M98.52,14.09a2.32,2.32,0,0,0-.13-0.54L98.19,13a8.63,8.63,0,0,1-.33-1,4.48,4.48,0,0,1-.15-1.22,1.57,1.57,0,0,1,.19-0.54A1.82,1.82,0,0,1,98.12,10l0.15-.67h0.56a4.9,4.9,0,0,0,.61,0h0.61q1.41,0,2.89-.11t3-.26q1.71-.22,3.67-0.33l0.24-.52L110,7.82l0.41-.22a2,2,0,0,1,1.19.2,2.86,2.86,0,0,1,.52.46q1-.07,2-0.2l2.08-.28,3-.37a24.55,24.55,0,0,1,3-.19h1.19a5.21,5.21,0,0,1,1.08.11l0.45,0.33a2.27,2.27,0,0,0,.37.48,4.81,4.81,0,0,0,.52.45,7.21,7.21,0,0,1,1.09,1.11,2.59,2.59,0,0,1,.39,2l-0.19.37a2.41,2.41,0,0,1-.37.3l-0.37.48h-0.41a2.07,2.07,0,0,0-.56.06l-0.45.17a2.07,2.07,0,0,1-.33.13l-0.41.13H123a21.41,21.41,0,0,0-2.41.15q-1.3.15-2.52,0.33l-1.71.2-1.48.17q-0.37,1-.67,1.71l-0.63,1.48q-0.33.74-.63,1.5a17.31,17.31,0,0,0-.56,1.69,10.87,10.87,0,0,0-.74,1.28,6.76,6.76,0,0,0-.48,1.39,3.88,3.88,0,0,0-.8,1.37q-0.24.74-.43,1.26l-0.15.56a1.38,1.38,0,0,0-.32.41,1.28,1.28,0,0,1-.2.33,5.81,5.81,0,0,1-.3.93l-0.15.39a0.5,0.5,0,0,0,0,.32,1.7,1.7,0,0,1-.22.63,2.74,2.74,0,0,1,0,.45l-0.07.45q-0.07.23-.11,0.46a0.69,0.69,0,0,0,0,.39l0.22,0.3a1.31,1.31,0,0,1,.19.37,0.46,0.46,0,0,0,.19.11,0.47,0.47,0,0,1,.19.11,1.12,1.12,0,0,0,.56.3l0.37,0.45a2.45,2.45,0,0,1-.41,2.08,2.66,2.66,0,0,1-2.23.85H107a2.07,2.07,0,0,1-.3-0.33l-0.56-.24a1,1,0,0,1-.41-0.35,0.34,0.34,0,0,0-.19-0.09,0.33,0.33,0,0,1-.19-0.09,2.23,2.23,0,0,1-.59-0.26l-0.41-.22V33.66a3.38,3.38,0,0,1-.46-0.89,8.48,8.48,0,0,1-.28-1l-0.2-.74a1.88,1.88,0,0,0-.28-0.59,13.37,13.37,0,0,1,.48-4.36q0.56-1.76,1.22-3.43,0.37-.89.71-1.82t0.59-1.89l0.41-.41a2.47,2.47,0,0,1,.33-0.26,2.52,2.52,0,0,1,.19-0.95q0.19-.46.41-0.95,0.15-.3.28-0.59a2.27,2.27,0,0,0,.17-0.52h-0.46l-0.43.06a4.13,4.13,0,0,1-.93.11,2.2,2.2,0,0,1-.48,0,1.49,1.49,0,0,1-.56.17h-1.41a1.83,1.83,0,0,0-.71.11h-1.89a4.54,4.54,0,0,1-.67-0.06,2.37,2.37,0,0,1-.78-0.28l-0.26-.3a0.8,0.8,0,0,0-.41-0.45l-0.41-.11V14.09h0Z" transform="translate(0 -0.02)"/><path class="cls-1" d="M120,31.83a0.34,0.34,0,0,1-.33-0.28,6,6,0,0,0-.33-0.61h0.4a3,3,0,0,1-.13-1.5q0.13-.69.32-1.34t0.32-1.26a2.22,2.22,0,0,0-.13-1.28,0.17,0.17,0,0,0,.28-0.09,2.2,2.2,0,0,0,.15-0.52,3,3,0,0,0,0-.67,5.51,5.51,0,0,0-.06-0.58,14.38,14.38,0,0,0,.76-2.37q0.28-1.22.5-2.43t0.5-2.34a12.73,12.73,0,0,1,.72-2.13,2.29,2.29,0,0,1,1.09.13,1.43,1.43,0,0,1,.76.5,10,10,0,0,0,2-2.15q0.89-1.26,1.8-2.47a12,12,0,0,1,2.06-2.13A5.37,5.37,0,0,1,133.5,7.2q0.89,0.63,2,1.35a6.16,6.16,0,0,1,1.82,1.8l0.58,0.39,0.58,0.39v0.56a4.41,4.41,0,0,1,.87,1.13,11.65,11.65,0,0,1,.63,1.37q0.28,0.72.54,1.47a9.91,9.91,0,0,0,.59,1.37,0.92,0.92,0,0,0-.06.39,1.61,1.61,0,0,0,.07.33,2.74,2.74,0,0,1,.09.37,2.89,2.89,0,0,1,0,.5,5,5,0,0,1-1.28,3.17,9,9,0,0,1-2.75,2,24,24,0,0,1-3.43,1.3,30.86,30.86,0,0,0-3.3,1.17,0.14,0.14,0,0,0,.13.15h0q0.17,0,.09.22,1.11,0.67,1.73,1.08a12.1,12.1,0,0,0,1.15.69,6.39,6.39,0,0,0,1.19.46q0.65,0.19,1.8.45l1.8,0.43q0.65,0.17,1.17.26l1.11,0.17,1.6,0.19a3.37,3.37,0,0,1,.67,1,4.92,4.92,0,0,1,.37,1.11,3.44,3.44,0,0,1,.06,1.06,1.42,1.42,0,0,1-.32.8,0.16,0.16,0,0,0,.18.13h0a1.16,1.16,0,0,1,.35,0,1.91,1.91,0,0,0-.45.45l-0.37.52a3.18,3.18,0,0,1-.43.48,1,1,0,0,1-.61.26,5.84,5.84,0,0,1-3.41,0A43.3,43.3,0,0,1,133,34.46q-1.6-.59-2.6-1.08a18.09,18.09,0,0,1-1.74-.95,11.44,11.44,0,0,1-1.37-1q-0.63-.54-1.45-1.28a0.18,0.18,0,0,0-.13.15,0.18,0.18,0,0,1-.13.15,9.34,9.34,0,0,1-.58,2.41,8.59,8.59,0,0,1-1.13,1.89,0.86,0.86,0,0,0-.8.11,2.42,2.42,0,0,1-.5.41,0.9,0.9,0,0,1-.56,0,2.16,2.16,0,0,1-.33-0.2l-0.33-.22a1,1,0,0,0-.59-0.07l-0.07-.69a0.5,0.5,0,0,0-.59-0.28,1.25,1.25,0,0,0,.07-0.58,2.38,2.38,0,0,0-.11-0.45,4.19,4.19,0,0,1-.13-0.43A0.88,0.88,0,0,1,120,31.83Zm12.39-17a8.32,8.32,0,0,1-1.08,1.28q-0.59.58-1.17,1.19a8.28,8.28,0,0,0-1,1.34,5,5,0,0,0-.63,1.73,12.83,12.83,0,0,0,3.27-.87L135,18.18A3.91,3.91,0,0,0,134,16a4.12,4.12,0,0,0-1.61-1.1v0Z" transform="translate(0 -0.02)"/></svg>