<?xml version="1.0" standalone="no"?>
<!DOCTYPE svg PUBLIC "-//W3C//DTD SVG 20010904//EN"
 "http://www.w3.org/TR/2001/REC-SVG-20010904/DTD/svg10.dtd">
<svg version="1.0" xmlns="http://www.w3.org/2000/svg"
 width="700.000000pt" height="700.000000pt" viewBox="0 0 700.000000 700.000000"
 preserveAspectRatio="xMidYMid meet">
<metadata>
Created by potrace 1.11, written by Peter Selinger 2001-2013
</metadata>
<g transform="translate(0.000000,700.000000) scale(0.100000,-0.100000)"
fill="#000000" stroke="none">
<path d="M4835 6980 c-209 -36 -395 -117 -575 -249 -62 -46 -1180 -1149 -1180
-1164 0 -3 42 -5 93 -4 152 1 285 -15 476 -58 76 -18 241 -83 358 -143 l73
-37 357 357 c321 320 365 360 423 387 131 62 257 63 390 4 57 -25 100 -65 429
-393 386 -386 397 -401 425 -519 28 -119 4 -251 -64 -352 -16 -24 -465 -479
-997 -1011 -1040 -1038 -1003 -1004 -1137 -1037 -97 -24 -226 -2 -323 55 -27
16 -190 170 -377 356 l-330 329 -308 -308 c-169 -169 -307 -312 -305 -316 3
-9 577 -586 653 -657 189 -175 424 -289 689 -336 73 -13 343 -12 415 1 273 51
487 154 674 325 73 66 1944 1937 1992 1992 52 59 122 164 165 248 19 36 34 67
35 70 0 3 9 23 19 45 25 56 72 229 82 300 14 106 8 342 -11 440 -34 175 -100
332 -203 490 -57 86 -121 155 -462 496 -218 218 -423 416 -456 440 -175 130
-348 205 -570 249 -102 20 -336 20 -450 0z"/>
<path d="M3049 5126 c-2 -2 -26 -7 -54 -10 -84 -11 -229 -51 -305 -83 -126
-54 -283 -151 -369 -229 -64 -59 -1941 -1934 -1991 -1990 -164 -183 -284 -446
-317 -694 -9 -71 -9 -278 1 -355 27 -217 125 -448 269 -635 84 -109 771 -790
876 -868 172 -129 367 -211 589 -246 84 -14 334 -15 397 -2 259 52 403 114
595 255 44 32 305 284 633 612 l558 557 -98 -1 c-301 -2 -574 64 -850 206
l-62 32 -358 -357 c-323 -322 -364 -360 -424 -388 -78 -36 -94 -40 -177 -45
-105 -5 -201 25 -288 90 -65 49 -689 683 -720 732 -87 134 -93 295 -18 446 21
42 215 241 992 1020 532 532 990 983 1017 1001 104 70 243 92 360 58 107 -30
140 -58 484 -400 l335 -333 308 308 c169 169 308 311 308 314 0 12 -676 682
-730 724 -184 142 -379 228 -610 271 -41 7 -344 16 -351 10z"/>
</g>
</svg>
